<?xml version="1.0" encoding="UTF-8" standalone="no"?>
<!-- Created with Inkscape (http://www.inkscape.org/) -->

<svg
   xmlns:dc="http://purl.org/dc/elements/1.1/"
   xmlns:cc="http://creativecommons.org/ns#"
   xmlns:rdf="http://www.w3.org/1999/02/22-rdf-syntax-ns#"
   xmlns:svg="http://www.w3.org/2000/svg"
   xmlns="http://www.w3.org/2000/svg"
   xmlns:sodipodi="http://sodipodi.sourceforge.net/DTD/sodipodi-0.dtd"
   xmlns:inkscape="http://www.inkscape.org/namespaces/inkscape"
   width="210mm"
   height="297mm"
   viewBox="0 0 210 297"
   version="1.1"
   id="svg4367"
   inkscape:version="0.92.2 5c3e80d, 2017-08-06"
   sodipodi:docname="entropy.svg">
  <defs
     id="defs4361" />
  <sodipodi:namedview
     id="base"
     pagecolor="#ffffff"
     bordercolor="#666666"
     borderopacity="1.0"
     inkscape:pageopacity="0.0"
     inkscape:pageshadow="2"
     inkscape:zoom="0.35"
     inkscape:cx="107.14286"
     inkscape:cy="465.57959"
     inkscape:document-units="mm"
     inkscape:current-layer="layer1"
     showgrid="false"
     inkscape:lockguides="true"
     inkscape:window-width="1440"
     inkscape:window-height="802"
     inkscape:window-x="0"
     inkscape:window-y="1"
     inkscape:window-maximized="1" />
  <metadata
     id="metadata4364">
    <rdf:RDF>
      <cc:Work
         rdf:about="">
        <dc:format>image/svg+xml</dc:format>
        <dc:type
           rdf:resource="http://purl.org/dc/dcmitype/StillImage" />
        <dc:title />
      </cc:Work>
    </rdf:RDF>
  </metadata>
  <g
     inkscape:label="Layer 1"
     inkscape:groupmode="layer"
     id="layer1">
    <text
       xml:space="preserve"
       style="font-style:normal;font-variant:normal;font-weight:normal;font-stretch:normal;font-size:70.55554962px;line-height:1.25;font-family:sans-serif;-inkscape-font-specification:'sans-serif, Normal';font-variant-ligatures:normal;font-variant-caps:normal;font-variant-numeric:normal;font-feature-settings:normal;text-align:start;letter-spacing:0px;word-spacing:0px;writing-mode:lr-tb;text-anchor:start;fill:#000000;fill-opacity:1;stroke:none;stroke-width:0.26458332"
       id="text4492"
       y="157.90477"
       x="8.3154764"><tspan
         sodipodi:role="line"
         id="tspan4490"
         x="8.3154764"
         y="220.3299"
         style="stroke-width:0.26458332" /></text>
    <path
       style="font-style:normal;font-variant:normal;font-weight:normal;font-stretch:normal;font-size:70.55554962px;line-height:1.25;font-family:sans-serif;-inkscape-font-specification:'sans-serif, Normal';font-variant-ligatures:normal;font-variant-caps:normal;font-variant-numeric:normal;font-feature-settings:normal;text-align:start;letter-spacing:0px;word-spacing:0px;writing-mode:lr-tb;text-anchor:start;fill:#000000;fill-opacity:1;stroke:none;stroke-width:0.1744003"
       d="m 184.94889,102.41864 c -1.96262,1.45737 -1.03423,6.37179 -1.69962,9.24714 -0.64034,7.96804 -1.19,15.76444 -2.7348,23.43928 6.79367,4.34308 13.46275,9.18938 20.11382,14.03877 -8.31128,1.51915 -16.71363,1.66053 -25.00944,3.68711 -3.77304,11.77414 -9.35739,21.86805 -14.644,31.85985 -3.41774,3.37906 -6.37128,7.80679 -9.55376,11.58775 -1.52211,4.49109 3.7962,5.78161 3.01927,10.4936 -2.47023,1.71454 -4.09648,-3.94131 -6.65315,-3.30863 -6.82015,-1.9266 -13.84077,6.74701 -14.63507,17.72916 -2.44592,-7.28391 -8.57751,-6.45667 -12.7973,-4.39845 -3.10583,1.72974 -7.40951,0.57139 -9.18578,6.12289 -1.69258,3.79765 -2.27858,10.31126 -5.53056,11.27182 -2.62484,-1.13812 -3.30885,-6.71508 -5.05327,-9.67717 -1.011241,-2.81464 -1.996277,-5.62741 -4.256458,-5.23282 -4.738947,-1.27926 -9.289276,-3.86048 -14.05804,-4.93191 0.06754,5.0595 -1.746439,9.53257 -2.003357,14.52167 -0.338392,2.93521 -0.12169,6.00797 -1.153048,8.36944 0.429361,6.04875 -1.152842,11.44149 -1.662014,17.26907 -0.0029,4.49891 4.718156,3.54491 4.103224,-0.85 0.09871,-4.30882 -0.04464,-10.66354 3.008083,-12.45298 3.517321,1.28434 8.011614,3.23191 10.929065,-1.62004 1.82404,-1.90592 1.392709,-7.09558 3.452035,-8.08393 2.69775,2.08966 4.18528,7.39398 4.99315,11.82162 0.69586,6.17135 -0.20292,12.6325 0.21741,18.94622 1.67322,1.10736 4.8122,-0.26614 3.80252,-3.96448 -0.48956,-8.15523 -1.24348,-18.24573 2.96033,-24.29416 0.85436,-3.10689 2.04777,-8.01615 4.4852,-7.87509 2.34406,3.20359 1.48262,9.14964 2.49709,13.48896 1.22351,6.84267 1.7255,13.98833 3.08326,20.78653 1.51645,0.71019 3.92835,-0.76085 3.15335,-3.8519 -0.32242,-4.62229 -3.16731,-10.60165 -0.41448,-14.45153 4.14762,-1.06758 8.73182,-3.82304 10.64867,-10.22277 1.59257,3.02125 1.95191,7.71564 4.14691,10.22604 5.01963,7.80484 14.06898,7.30152 18.30858,-1.91208 3.81413,-7.744 2.87662,-18.91813 -0.32306,-26.72995 -0.4338,-2.1656 -0.82985,-4.94847 0.7101,-2.37378 4.2367,5.39939 6.903,13.18527 10.76551,19.18277 2.18942,-0.74845 2.95965,-5.21137 1.0667,-7.30896 -1.86497,-3.20779 -5.6048,-6.73653 -4.34501,-11.79877 2.98192,-7.1679 9.00876,-4.67449 12.70588,-0.60364 2.03838,2.6629 5.12948,2.16764 6.5099,-1.67715 -4.35344,-3.26825 -9.19586,-6.60897 -13.71569,-8.06435 1.52923,-6.33963 -1.18374,-13.38868 -4.78185,-16.10257 0.8941,-4.82603 4.90613,-10.52127 7.60861,-5.44277 5.14304,6.51342 10.25411,13.10512 15.61388,19.15852 1.75269,-1.44089 2.5406,-6.90861 -0.002,-7.39708 -5.73067,-6.37283 -11.10652,-13.51436 -16.69938,-20.18612 1.33489,-4.76578 4.80522,-11.07548 8.23083,-7.15725 5.78084,4.80879 11.86516,8.56566 17.86156,12.60471 1.62014,-1.38268 1.91116,-5.56125 -0.13205,-6.35294 -6.27166,-3.57179 -12.31696,-8.48621 -18.47722,-12.67975 8.21463,-1.41984 16.53168,-1.80964 24.7504,-3.45872 1.23813,-2.28773 2.9661,-6.83883 0.36064,-8.4983 -6.16153,-4.27398 -12.83793,-7.43394 -18.33397,-13.74674 1.53394,-2.24469 4.31031,0.28206 6.21864,0.12415 5.2358,1.22384 10.45604,2.61654 15.70249,3.72122 0.57134,-9.31569 2.2978,-18.45327 2.0897,-27.87849 -1.85915,-1.30926 -3.8357,1.37004 -3.02536,4.48978 -0.33393,5.66552 -1.16658,11.5478 -1.58886,17.32618 -2.76899,-2.71999 -7.26902,0.63849 -9.07505,-4.48491 -0.55236,-6.31899 1.59153,-12.33352 1.12969,-18.67212 -1.67396,-1.73798 -3.92674,0.49101 -3.26206,3.71649 -0.62264,5.226 0.0641,11.88256 -2.45645,15.79748 -2.87918,0.51173 -7.60071,-1.70335 -6.41237,-7.7413 0.66902,-4.99224 1.5291,-9.9847 1.47305,-15.13839 -0.75661,0.37986 -1.33025,-0.50888 -2.04499,-0.40623 z m -157.263543,0.92178 c -8.529151,1.51264 -17.058452,3.02307 -25.5875022,4.5371 0.7422356,9.16929 0.993468,18.43489 2.0754883,27.54895 1.7735227,1.07245 3.8179808,-1.54264 2.7713756,-4.46696 -1.0075649,-5.87881 -0.8366149,-12.12439 -1.4466425,-18.19248 3.102535,1.46496 6.8833028,-3.55398 9.4621028,0.5759 1.586119,5.95823 0.446029,12.7742 1.943415,18.78961 1.906548,0.5712 3.585913,-2.3935 2.635254,-5.28106 -0.277273,-5.09442 -2.591829,-11.82001 0.244828,-15.98675 2.862745,-3.57599 7.986558,0.43569 6.82381,6.51608 -0.249849,4.91064 2.508105,11.71183 -1.024028,14.78599 -6.659004,4.2341 -13.552258,8.27022 -20.2296383,12.73359 -0.098937,2.78699 1.6259968,6.84689 3.4286651,4.3756 5.8676322,-4.81593 12.2714512,-8.03578 18.4030462,-11.99455 -5.192062,10.30447 -10.84027,19.99356 -15.94355,30.41544 0.287965,2.65132 0.418461,7.48097 2.834359,6.74611 6.886496,-4.565 13.962435,-9.03549 20.888965,-13.19693 2.78224,2.89323 4.517087,10.91459 0.544996,13.40934 -5.312873,5.74178 -10.428846,11.93236 -15.52751,18.14974 0.368046,3.11529 3.422357,5.92374 4.441519,2.11765 5.428855,-7.02071 11.211389,-13.28788 16.777611,-20.01647 2.435255,3.35804 5.305924,10.58596 1.992182,14.73704 -4.471679,7.44248 -8.402136,15.651 -12.49152,23.62363 0.404184,3.12987 3.205649,4.97629 4.160114,1.46671 1.710533,-3.83185 3.591716,-10.81668 7.211884,-9.1868 4.542943,3.45516 4.000735,12.83505 2.245743,19.01011 -1.280067,3.80984 -0.579089,8.87009 2.158188,10.45417 0.906134,-7.39256 2.493596,-15.53242 2.549912,-22.7818 6.224453,2.20641 11.90148,-11.88756 7.10318,-19.45849 -4.771944,-7.63608 -10.588633,-13.96204 -13.733532,-23.81748 -2.256191,-4.69883 -4.610252,-9.23415 -6.107017,-14.74225 -6.845732,4.30369 -13.66251,8.72932 -20.542532,12.89185 5.268623,-10.33241 10.866376,-20.21842 16.103044,-30.59325 -1.34333,-6.71441 -2.174726,-13.73957 -2.32743,-20.86158 -0.188385,-4.17604 -0.426621,-8.34878 -0.837102,-12.4856 l -0.516992,0.0918 z m 21.158172,86.12674 c 3.696284,1.65295 7.379326,9.38221 4.031096,14.82187 -2.054741,4.21115 -5.622743,2.96674 -7.575574,-0.54001 -0.772108,-1.42387 -2.674789,-3.07238 -2.913605,-4.39355 2.619523,-2.42915 3.192549,-9.34666 6.458083,-9.88831 z m 113.987171,0.72927 c 4.27219,0.57772 5.81505,11.00189 2.173,14.67015 -1.7809,4.10386 -5.71919,2.59385 -6.87967,-1.59558 -1.95248,-2.14075 -2.82144,-7.00783 -0.37589,-9.16068 1.37511,-2.07185 3.12392,-3.99046 5.08256,-3.91389 z m -96.997239,14.42543 c -10.812994,1.55968 -17.133187,26.25105 -9.248764,38.87295 5.333154,8.50396 15.670891,7.11157 19.192404,-4.07541 1.591027,-5.2845 4.244848,-10.54358 3.131008,-16.65074 -0.322233,-8.903 -4.7664,-16.32469 -10.176282,-17.79114 -0.953193,-0.29607 -1.928152,-0.41895 -2.898366,-0.35566 z m 79.746209,3.69038 c 7.78267,1.98153 12.5353,18.34491 8.61992,29.1804 -3.43481,7.27381 -11.52787,6.48325 -14.05702,-1.92839 -3.48885,-7.04827 -4.78563,-19.94342 0.75177,-25.28121 1.39185,-1.3401 3.0497,-2.22504 4.68533,-1.9708 z m -78.147181,1.32475 c 6.492432,0.10338 9.889662,13.44435 6.715108,21.78496 -1.682252,8.45652 -7.94964,16.13075 -13.369261,11.08583 -5.133446,-4.60737 -4.906151,-16.30477 -1.991166,-23.47192 1.742793,-5.04348 4.813275,-9.65993 8.645319,-9.39887 z m 58.561621,10.59474 c 5.1112,0.71117 5.59674,14.65601 0.45005,16.18252 -2.05792,1.61211 -5.44243,1.15078 -5.63318,-3.44241 -0.78319,-3.60586 -2.51736,-10.46578 0.95698,-11.87707 1.40383,-0.64279 2.7641,-0.70749 4.22615,-0.86304 z m -38.451857,0.65748 c 3.884987,-0.47926 8.093299,5.2452 6.321953,11.78571 -1.328218,5.54104 -5.406681,6.05464 -8.379153,4.01831 -0.99528,-0.54346 -3.081404,0.15069 -1.841829,-2.29059 1.167789,-4.28761 -0.358663,-13.42554 3.899029,-13.51343 z"
       id="text4525"
       inkscape:connector-curvature="0" />
    <path
       style="font-style:normal;font-variant:normal;font-weight:normal;font-stretch:normal;font-size:146.84399414px;line-height:1.25;font-family:sans-serif;-inkscape-font-specification:'sans-serif, Normal';font-variant-ligatures:normal;font-variant-caps:normal;font-variant-numeric:normal;font-feature-settings:normal;text-align:start;letter-spacing:0px;word-spacing:0px;writing-mode:lr-tb;text-anchor:start;fill:#000000;fill-opacity:1;stroke:none;stroke-width:0.41144851"
       d="m 137.40131,60.405515 c -9.05912,-0.554013 -19.10611,9.474946 -19.74303,24.7761 -0.72586,13.70852 6.9602,25.694565 15.3522,26.682475 7.07074,2.07834 15.87257,3.1305 20.05259,14.00063 3.84581,11.96493 -3.14675,27.29098 -11.39621,26.74589 -7.96492,1.37777 -16.0403,-1.65804 -23.16516,-7.27156 -1.64189,4.25855 -0.25367,11.63231 3.38949,11.09099 10.97357,5.0066 24.14965,6.95034 33.8348,-4.5439 9.30317,-12.54668 4.87267,-40.63037 -7.12854,-44.62604 -7.6084,-4.49377 -17.35994,-2.38399 -23.10828,-12.947268 -4.33481,-10.62526 1.79993,-25.409508 9.36211,-25.86503 7.36276,-2.026657 14.74177,1.065636 21.60125,5.088611 1.19388,-3.74351 0.54061,-10.836632 -2.88722,-10.23128 -5.33932,-1.408395 -10.71631,-3.114081 -16.164,-2.899618 z m -58.018171,3.14 c -4.387074,2.02701 -3.955842,10.639316 -6.011225,15.75196 -6.67965,26.348005 -13.359537,52.695845 -20.039039,79.043935 18.63531,0 37.270619,0 55.905945,0 -7.9998,-31.55871 -16.000931,-63.116618 -24.000163,-94.675704 -1.950851,0.198536 -3.9217,-0.284327 -5.855518,-0.120191 z M 100.99202,150.0549 c -13.16659,0 -26.333168,-1e-5 -39.499748,0 6.583466,-26.47104 13.16693,-52.942054 19.750396,-79.413099 6.583114,26.471045 13.166231,52.942059 19.749352,79.413099 z"
       id="text4538"
       inkscape:connector-curvature="0" />
  </g>
</svg>
